<svg xmlns="http://www.w3.org/2000/svg"
     viewBox="0 0 225.000000 225.000000">
    <g transform="translate(0.000000,225.000000) scale(0.100000,-0.100000)"
       fill="#000000" stroke="none">
        <path d="M791 2136 c-39 -58 -71 -108 -71 -111 0 -3 14 -5 30 -5 l31 0 -3
-497 c-3 -462 -4 -501 -22 -535 -26 -53 -75 -81 -145 -82 -68 -1 -116 24 -146
74 -18 32 -20 55 -23 298 l-3 262 -85 0 -85 0 3 -282 c3 -271 4 -285 26 -334
28 -61 92 -127 147 -150 99 -41 258 -35 347 13 60 32 92 69 127 143 l26 55 3
517 3 517 30 3 29 3 -66 100 c-37 55 -70 104 -74 109 -5 4 -40 -39 -79 -98z"/>
        <path d="M1070 1150 l0 -390 85 0 85 0 0 114 0 113 113 6 c129 5 187 23 245
73 121 104 115 326 -12 413 -73 51 -129 61 -333 61 l-183 0 0 -390z m411 192
c58 -65 27 -168 -59 -192 -20 -5 -70 -10 -109 -10 l-73 0 0 121 0 121 106 -4
c105 -3 106 -3 135 -36z"/>
        <path d="M1750 1511 c0 -30 34 -369 45 -448 l6 -43 44 0 c54 0 48 -21 75 255
12 116 23 222 26 238 l6 27 -101 0 -101 0 0 -29z"/>
        <path d="M1760 850 l0 -90 90 0 91 0 -3 88 -3 87 -87 3 -88 3 0 -91z"/>
    </g>
</svg>
